<svg width="168" height="27" viewBox="0 0 168 27" fill="none" xmlns="http://www.w3.org/2000/svg">
<g opacity="0.65">
<path opacity="0.65" d="M21.02 4.64H0V25.64H9.14V13.78H21.02V4.64Z" fill="#03ABEC"/>
<path opacity="0.65" d="M25.63 0.119995H4.63V21.12H13.8V9.26H25.63V0.119995Z" fill="#03ABEC"/>
</g>
<path d="M25.63 0.119995H4.61V9.26H25.63V0.119995Z" fill="#00B1E8"/>
<path d="M4.61 4.64V21.14H9.14V13.77H13.8V9.26H21.08V4.64H4.61Z" fill="#059BCC"/>
<path d="M33.93 1.47H34.02C34.4538 1.51898 34.8845 1.59243 35.31 1.69C35.7508 1.77304 36.1804 1.90728 36.59 2.09C36.9282 2.21792 37.2064 2.46758 37.37 2.79C37.4994 3.10733 37.564 3.44733 37.56 3.79V22.24C37.5697 22.6067 37.4908 22.9703 37.33 23.3C37.1709 23.5997 36.9077 23.8309 36.59 23.95C36.2249 24.0706 35.8443 24.138 35.46 24.15C34.86 24.21 34.38 24.24 34.02 24.27H33.93V25.74H45.19V24.27H45.1C44.6422 24.2384 44.1875 24.1715 43.74 24.07C43.3505 24.0102 42.9685 23.9096 42.6 23.77C42.2639 23.6295 41.9854 23.3792 41.81 23.06C41.6611 22.7479 41.5859 22.4058 41.59 22.06V13.35H44.43C45.088 13.3391 45.7443 13.4199 46.38 13.59C46.8995 13.7417 47.3602 14.0488 47.7 14.47C47.9995 14.9021 48.2228 15.3824 48.36 15.89C48.5488 16.4673 48.6696 17.0647 48.72 17.67V17.76H50.26V7.53H48.73V7.61C48.6748 8.21311 48.5472 8.80738 48.35 9.38C48.2116 9.81566 47.9947 10.2224 47.71 10.58C47.3727 10.9516 46.9508 11.2363 46.48 11.41C45.8334 11.6131 45.1576 11.7077 44.48 11.69H41.58V1.61H45.8C46.45 1.61 47.03 1.61 47.53 1.61C48.03 1.61 48.48 1.67 48.85 1.72C49.7847 2.00888 50.5724 2.64623 51.05 3.5C51.7491 4.39615 52.2779 5.41299 52.61 6.5V6.57H54.13V0H33.93V1.47Z" fill="white"/>
<path d="M60.69 5.59001C61.0211 5.59357 61.3489 5.52366 61.6498 5.38533C61.9507 5.247 62.2171 5.04368 62.43 4.79001C62.8905 4.28102 63.1406 3.61628 63.13 2.93001C63.1322 2.30549 62.8878 1.70534 62.45 1.26001C62.2258 1.02245 61.9541 0.8347 61.6526 0.708937C61.3511 0.583175 61.0266 0.522212 60.7 0.530006C60.3829 0.532233 60.0699 0.602067 59.7819 0.734847C59.494 0.867627 59.2376 1.0603 59.03 1.30001C58.5794 1.79112 58.3296 2.4335 58.33 3.10001C58.3313 3.74541 58.5821 4.36532 59.03 4.83001C59.237 5.06713 59.4921 5.25752 59.7783 5.38855C60.0645 5.51958 60.3752 5.58825 60.69 5.59001Z" fill="white"/>
<path d="M64.47 24.22C64.2119 24.1518 63.9582 24.0683 63.71 23.97C63.4176 23.8624 63.1682 23.6623 63 23.4C62.8406 23.0913 62.7615 22.7474 62.77 22.4V7.89001L62.46 7.57001L56.06 7.97001V9.34001H56.15C56.5441 9.36909 56.9354 9.42928 57.32 9.52001C57.6707 9.58467 58.0085 9.70628 58.32 9.88001C58.6103 10.0784 58.85 10.3422 59.02 10.65C59.1893 10.9558 59.2755 11.3006 59.27 11.65V22.65C59.2816 22.9977 59.2023 23.3423 59.04 23.65C58.8787 23.9037 58.6294 24.0888 58.34 24.17C58.0999 24.2464 57.8514 24.2934 57.6 24.31L56.79 24.38H56.11V25.75H65.42V24.35H65.33C65.0393 24.3399 64.7507 24.2963 64.47 24.22Z" fill="white"/>
<path d="M86.32 24.25C86.0691 24.1908 85.8246 24.107 85.59 24C85.3022 23.8987 85.0584 23.7008 84.9 23.44C84.7439 23.131 84.6748 22.7853 84.7 22.44V13.24C84.7707 11.7078 84.331 10.1955 83.45 8.94C82.9796 8.38191 82.3836 7.94323 81.7109 7.65991C81.0382 7.37658 80.308 7.25667 79.58 7.31C78.8694 7.30103 78.1615 7.39879 77.48 7.6C76.9134 7.77105 76.372 8.01652 75.87 8.33C75.4339 8.62982 75.0225 8.96423 74.64 9.33C74.24 9.7 73.9 10.03 73.64 10.33V7.89L73.33 7.58L67.33 7.98V9.35H67.42C67.7561 9.36871 68.0903 9.41216 68.42 9.48C68.6932 9.5307 68.9545 9.63248 69.19 9.78C69.4887 9.98154 69.7299 10.2572 69.89 10.58C70.0583 10.9149 70.144 11.2852 70.14 11.66V22.61C70.1555 22.958 70.076 23.3037 69.91 23.61C69.752 23.8688 69.5019 24.0581 69.21 24.14C68.9687 24.2116 68.7208 24.2585 68.47 24.28L67.61 24.35H67.34V25.73H76.41V24.36H76.32C76.0177 24.3397 75.7171 24.2996 75.42 24.24C75.1446 24.1785 74.8764 24.088 74.62 23.97C74.329 23.8599 74.0804 23.6604 73.91 23.4C73.7334 23.0975 73.6499 22.7497 73.67 22.4V12.25C73.83 12 73.99 11.75 74.17 11.52C74.4296 11.1804 74.7439 10.8864 75.1 10.65C75.5268 10.3511 75.9907 10.1091 76.48 9.93C77.0308 9.72888 77.6138 9.63059 78.2 9.64C78.6022 9.64106 78.9991 9.7313 79.3623 9.90421C79.7254 10.0771 80.0457 10.3284 80.3 10.64C80.9301 11.4548 81.2396 12.4723 81.17 13.5V22.62C81.1816 22.9677 81.1023 23.3123 80.94 23.62C80.7791 23.8761 80.5302 24.0646 80.24 24.15C79.9791 24.2232 79.7107 24.2668 79.44 24.28L78.53 24.36H78.44V25.74H87.31V24.35H87.22C86.9179 24.3388 86.6171 24.3054 86.32 24.25Z" fill="white"/>
<path d="M101.04 16.82C100.509 16.3623 99.917 15.9819 99.28 15.69C98.5506 15.3436 97.799 15.0463 97.03 14.8C96.23 14.54 95.55 14.3 95.03 14.09C94.56 13.9209 94.1105 13.6995 93.69 13.43C93.3512 13.2084 93.0728 12.906 92.88 12.55C92.6926 12.1392 92.6003 11.6914 92.61 11.24C92.6099 10.9113 92.6825 10.5867 92.8225 10.2894C92.9626 9.99201 93.1666 9.72929 93.42 9.52C94.0585 9.00906 94.8636 8.75258 95.68 8.8C96.7955 8.77705 97.8745 9.19787 98.68 9.97C99.5198 10.8019 100.079 11.8751 100.28 13.04V13.12H101.7L101.43 7.22H99.98L99.58 8.12C99.0374 7.85492 98.4673 7.65035 97.88 7.51C97.174 7.33055 96.4484 7.23984 95.72 7.24C94.1104 7.15973 92.5326 7.70837 91.32 8.77C90.7932 9.24535 90.3736 9.82736 90.0892 10.4774C89.8047 11.1274 89.6618 11.8305 89.67 12.54C89.6528 13.3045 89.8282 14.061 90.18 14.74C90.5094 15.35 90.9583 15.8874 91.5 16.32C92.0514 16.7342 92.657 17.0707 93.3 17.32C93.9168 17.5905 94.5477 17.8275 95.19 18.03C95.89 18.24 96.54 18.46 97.11 18.68C97.6144 18.8646 98.0946 19.1097 98.54 19.41C98.8878 19.6542 99.178 19.9716 99.39 20.34C99.5892 20.7296 99.6888 21.1625 99.68 21.6C99.7033 22.0091 99.6345 22.4182 99.4788 22.7972C99.323 23.1762 99.0842 23.5155 98.78 23.79C98.0281 24.338 97.1087 24.6068 96.18 24.55C95.4263 24.5626 94.6822 24.38 94.02 24.02C93.3941 23.6842 92.8321 23.2407 92.36 22.71C91.9189 22.1983 91.5427 21.634 91.24 21.03C90.9711 20.5181 90.7695 19.9736 90.64 19.41V19.33H89.19V25.7H90.88L91.22 24.6C91.7721 24.9827 92.3659 25.3015 92.99 25.55C94.2568 26.0562 95.6321 26.2301 96.985 26.0551C98.338 25.8801 99.6237 25.3619 100.72 24.55C101.324 24.0545 101.808 23.4277 102.134 22.7172C102.46 22.0068 102.619 21.2314 102.6 20.45C102.621 19.726 102.485 19.0061 102.2 18.34C101.922 17.7592 101.527 17.2418 101.04 16.82Z" fill="white"/>
<path d="M115.4 23.66C114.965 23.7089 114.528 23.7356 114.09 23.74C113.574 23.7596 113.06 23.6711 112.58 23.48C112.234 23.3227 111.947 23.0602 111.76 22.73C111.553 22.3358 111.427 21.9039 111.39 21.46C111.328 20.8453 111.302 20.2277 111.31 19.61V9.79H116.73V7.87H111.27V2.34H107.8V7.87H104.53V9.79H107.73V21.71C107.66 22.8646 107.988 24.0084 108.66 24.95C109.073 25.3722 109.577 25.6958 110.132 25.8967C110.688 26.0975 111.282 26.1704 111.87 26.11C112.746 26.1326 113.62 26.0179 114.46 25.77C115.15 25.55 115.9 25.27 116.68 24.95H116.74V23.41L116.61 23.46C116.215 23.5719 115.81 23.639 115.4 23.66Z" fill="white"/>
<path d="M133.16 20.65C132.638 21.698 131.882 22.6116 130.95 23.32C130.137 23.8218 129.195 24.0755 128.24 24.05C127.318 24.0766 126.404 23.8738 125.58 23.46C124.856 23.0757 124.238 22.5193 123.78 21.84C123.304 21.0785 122.965 20.239 122.78 19.36C122.56 18.3582 122.45 17.3356 122.45 16.31H134.2V15C134.212 13.986 134.077 12.9755 133.8 12C133.545 11.1228 133.12 10.3041 132.55 9.59001C131.931 8.85062 131.147 8.26809 130.26 7.89001C129.191 7.4559 128.044 7.24492 126.89 7.27001C125.693 7.25744 124.51 7.53175 123.44 8.07001C122.417 8.56823 121.516 9.28512 120.8 10.17C120.085 11.0666 119.533 12.0821 119.17 13.17C118.807 14.2738 118.622 15.4281 118.62 16.59C118.613 17.8348 118.785 19.0741 119.13 20.27C119.453 21.383 119.99 22.4223 120.71 23.33C121.434 24.2222 122.354 24.9342 123.4 25.41C124.591 25.9411 125.886 26.2007 127.19 26.17C128.735 26.197 130.252 25.7541 131.54 24.9C132.81 24.0288 133.842 22.8529 134.54 21.48L134.59 21.4L133.16 20.53V20.65ZM126.8 8.86001C127.438 8.83085 128.069 9.00601 128.6 9.36001C129.064 9.70421 129.441 10.153 129.7 10.67C129.971 11.2695 130.15 11.9068 130.23 12.56C130.339 13.2211 130.396 13.8899 130.4 14.56H122.4C122.417 13.0574 122.907 11.5984 123.8 10.39C124.149 9.92086 124.601 9.53804 125.121 9.27105C125.641 9.00406 126.215 8.86001 126.8 8.85001V8.86001Z" fill="white"/>
<path d="M141.11 5.59C141.441 5.5915 141.768 5.52067 142.068 5.38248C142.369 5.24429 142.636 5.04208 142.85 4.79C143.31 4.28102 143.561 3.61628 143.55 2.93C143.552 2.30549 143.308 1.70533 142.87 1.26C142.644 1.02218 142.37 0.834354 142.067 0.708625C141.764 0.582895 141.438 0.522048 141.11 0.530003C140.795 0.534901 140.484 0.605978 140.198 0.738625C139.912 0.871273 139.657 1.06253 139.45 1.3C138.991 1.7856 138.739 2.43162 138.75 3.1C138.751 3.74541 139.002 4.36531 139.45 4.83C139.657 5.06712 139.912 5.25752 140.198 5.38855C140.484 5.51957 140.795 5.58825 141.11 5.59Z" fill="white"/>
<path d="M144.89 24.22C144.632 24.1518 144.378 24.0683 144.13 23.97C143.836 23.8651 143.586 23.6643 143.42 23.4C143.258 23.0923 143.178 22.7477 143.19 22.4V7.89001L142.88 7.57001L136.48 7.97001V9.34001H136.57C136.964 9.36986 137.355 9.43004 137.74 9.52001C138.091 9.58467 138.429 9.70628 138.74 9.88001C139.03 10.0784 139.27 10.3422 139.44 10.65C139.603 10.9581 139.689 11.3013 139.69 11.65V22.65C139.702 22.9977 139.622 23.3423 139.46 23.65C139.299 23.9037 139.049 24.0888 138.76 24.17C138.52 24.2464 138.271 24.2934 138.02 24.31L137.16 24.38H136.56V25.75H145.8V24.35H145.72C145.439 24.3376 145.161 24.294 144.89 24.22Z" fill="white"/>
<path d="M167.64 24.36C167.354 24.3436 167.07 24.3069 166.79 24.25C166.535 24.1924 166.287 24.1086 166.05 24C165.763 23.8966 165.52 23.6992 165.36 23.44C165.214 23.1277 165.145 22.7846 165.16 22.44V13.24C165.24 11.7067 164.799 10.1914 163.91 8.94001C163.442 8.38208 162.847 7.94338 162.176 7.65999C161.505 7.37661 160.776 7.25666 160.05 7.31001C159.339 7.30043 158.631 7.3982 157.95 7.60001C157.383 7.77105 156.842 8.01653 156.34 8.33001C155.901 8.62984 155.486 8.96423 155.1 9.33001C154.7 9.70001 154.37 10.03 154.1 10.33V7.89001L153.8 7.58001L147.8 7.98001V9.35001C148.136 9.36804 148.47 9.4115 148.8 9.48001C149.077 9.52877 149.342 9.63064 149.58 9.78001C149.874 9.98722 150.114 10.2615 150.28 10.58C150.448 10.9149 150.534 11.2852 150.53 11.66V22.61C150.542 22.9577 150.462 23.3023 150.3 23.61C150.142 23.8688 149.892 24.0581 149.6 24.14C149.359 24.2116 149.111 24.2585 148.86 24.28L148.08 24.34H147.7V25.71H156.8V24.35H156.71C156.41 24.35 156.11 24.28 155.81 24.22C155.535 24.1622 155.267 24.075 155.01 23.96C154.72 23.8427 154.473 23.6405 154.3 23.38C154.123 23.0775 154.04 22.7297 154.06 22.38V12.24C154.22 11.99 154.38 11.75 154.56 11.51C154.822 11.1722 155.136 10.8785 155.49 10.64C155.919 10.3394 156.387 10.0973 156.88 9.92001C157.43 9.7292 158.008 9.6312 158.59 9.63001C158.992 9.63106 159.389 9.7213 159.752 9.89422C160.115 10.0671 160.436 10.3184 160.69 10.63C161.321 11.4404 161.631 12.4553 161.56 13.48V22.6C161.581 22.9485 161.501 23.2956 161.33 23.6C161.172 23.8588 160.922 24.0481 160.63 24.13C160.369 24.2064 160.101 24.2534 159.83 24.27L158.92 24.34H158.83V25.71H167.7V24.35L167.64 24.36Z" fill="white"/>
</svg>
